<svg id="Layer_1" data-name="Layer 1" xmlns="http://www.w3.org/2000/svg" viewBox="0 0 129 59"><defs><style>.cls-1{fill:#f58f83;}</style></defs><title>logo-129-46(v3)</title><path class="cls-1" d="M64.5,4.19A10.48,10.48,0,0,0,54,14.65c0,2.31,1.37,5.84,4.3,11.09,2,3.58,4,6.6,4.07,6.73l1.44,2.18a.78.78,0,0,0,1.3,0l1.44-2.18c.08-.13,2.06-3.13,4.07-6.73C73.59,20.49,75,17,75,14.65A10.47,10.47,0,0,0,64.5,4.19ZM69.29,25c-2,3.56-3.92,6.51-4,6.64l-.78,1.18-.78-1.18c-.09-.13-2-3.11-4-6.64-2.72-4.87-4.1-8.34-4.1-10.32a8.89,8.89,0,1,1,17.78,0c0,2-1.38,5.45-4.1,10.32Zm0,0"/><path class="cls-1" d="M65.15,8.09a2.17,2.17,0,0,0,.13-1.19V6.84a6.51,6.51,0,0,0-.77,0,7.8,7.8,0,0,0-2.82.52A19.42,19.42,0,0,1,64.35,8.9a5.34,5.34,0,0,0,.8-.81Zm0,0"/><path class="cls-1" d="M69.2,12.66a5.15,5.15,0,0,0-1,.2,18,18,0,0,1,2,7.54,8,8,0,0,0,2.28-5.28c-.92-1.14-2.15-2.59-3.29-2.46Zm0,0"/><path class="cls-1" d="M61.12,10.61a7,7,0,0,0,2.57-1.19,16.86,16.86,0,0,0-3-1.66,8,8,0,0,0-3.51,3.79,14.84,14.84,0,0,1,2.95-.75l1-.19Zm0,0"/><path class="cls-1" d="M66.65,10.84l.26.26a8.87,8.87,0,0,1,.85,1.07,5.27,5.27,0,0,1,1.35-.31c1.26-.14,2.37.85,3.33,2a8,8,0,0,0-2-4.34,11,11,0,0,0-1.88.38,9.51,9.51,0,0,0-1.93,1Zm0,0"/><path class="cls-1" d="M63.4,22.72a32.41,32.41,0,0,0,1.72-5.82c.19-.8.35-1.48.48-1.93h0A4.22,4.22,0,0,1,67,12.54a7.92,7.92,0,0,0-.71-.89L66,11.29c-3,2-7,5.7-7.37,8.9a8,8,0,0,0,4.8,2.53"/><path class="cls-1" d="M62.25,13.21a28.33,28.33,0,0,1,3.11-2.48c-.33-.3-.66-.57-1-.82a8,8,0,0,1-3.08,1.48l-1,.19a11.57,11.57,0,0,0-3.48,1,8.06,8.06,0,0,0,1.13,6.76c.59-2.32,2.59-4.58,4.31-6.16Zm0,0"/><path class="cls-1" d="M66.05,10.27a10.36,10.36,0,0,1,2.31-1.19,12.57,12.57,0,0,1,1.39-.32A7.92,7.92,0,0,0,66.08,7a2.42,2.42,0,0,1-.29,1.62,6.14,6.14,0,0,1-.78.81c.34.27.69.56,1,.88Zm0,0"/><path class="cls-1" d="M64.5,22.8a8,8,0,0,0,4.94-1.71,17.78,17.78,0,0,0-2-7.88,3.53,3.53,0,0,0-1.1,2h0c-.13.42-.29,1.1-.47,1.88a34.69,34.69,0,0,1-1.65,5.71"/><path class="cls-1" d="M11.34,53.65H5.78V51.44h4.83c3.44,0,3.83-1.06,3.81-2.08-.05-2.55-8.9-3.74-8.69-8.2.09-2.51,1.74-4,5-4H16v2.2H11.3c-2.79,0-3.14.91-3.12,1.76.07,3.16,8.6,3.42,8.58,8.38C16.73,52.14,15.22,53.65,11.34,53.65Z"/><path class="cls-1" d="M29.85,53.89a4.78,4.78,0,0,1-3-1.13l-.36-.43-.37.37A5.14,5.14,0,0,1,23,53.87c-2.53,0-4.2-2-4.2-4.66v-7h2.25v7.58a2.42,2.42,0,0,0,2.14,2.14,2.49,2.49,0,0,0,2.15-2.25V42.2h2.27v7.38a2.15,2.15,0,1,0,4.29-.06V42.2h2.25v6.58C34.18,51.7,32.45,54,29.85,53.89Z"/><path class="cls-1" d="M41.86,53.85a6,6,0,0,1-5.78-6.07A5.91,5.91,0,0,1,47.4,45.62L39.87,50l-1-1.69,5.56-3.18a3.29,3.29,0,0,0-2.6-1A3.72,3.72,0,0,0,38.33,48a3.84,3.84,0,0,0,3.81,3.79,3.52,3.52,0,0,0,3.53-3.42l2.17.23A5.78,5.78,0,0,1,41.86,53.85Z"/><path class="cls-1" d="M58.68,53.63V48.74c0-4.61-3.61-4.61-3.79-4.61a3.74,3.74,0,0,0-3.61,4.09,3.81,3.81,0,0,0,3.63,3.63A6,6,0,0,0,58,50.77V53a8.49,8.49,0,0,1-3.49.83,6,6,0,0,1-5.43-6.07,5.7,5.7,0,0,1,6-5.63A5.81,5.81,0,0,1,60.87,48v5.63Z"/><path class="cls-1" d="M68.29,53.63c-1.49,0-2.75-.19-3.64-1.45a3.88,3.88,0,0,1-.8-2.38V39.4h2.21v2.8h3.77v2.25H66.1v4.91a1.64,1.64,0,0,0,.61,1.56,2.79,2.79,0,0,0,1.93.44h1.27v2.27Z"/><path class="cls-1" d="M86.84,53.63,85.13,40.81,81.69,52.14c-.37,1.19-.71,1.75-1.67,1.77s-1.1-.91-1.34-1.73L75.07,40.9,73.44,53.63H71.1l1.67-13.12c.17-1.56.32-3.53,1.93-3.57,1.43-.09,2,1.45,2.42,2.83l3,9.9L83.4,39.32c.35-1.19.5-2.41,2-2.41,2,0,1.9,2.65,2.14,4.59l1.54,12.13Z"/><path class="cls-1" d="M96.58,53.85a6,6,0,0,1-5.78-6.07,5.91,5.91,0,0,1,11.32-2.16L94.59,50l-1-1.69,5.57-3.18a3.29,3.29,0,0,0-2.6-1A3.72,3.72,0,0,0,93.05,48a3.84,3.84,0,0,0,3.81,3.79,3.52,3.52,0,0,0,3.53-3.42l2.17.23A5.78,5.78,0,0,1,96.58,53.85Z"/><path class="cls-1" d="M109.83,53.85a6,6,0,0,1-5.78-6.07,5.91,5.91,0,0,1,11.32-2.16L107.83,50l-1-1.69,5.56-3.18a3.26,3.26,0,0,0-2.59-1A3.71,3.71,0,0,0,106.3,48a3.84,3.84,0,0,0,3.81,3.79,3.52,3.52,0,0,0,3.53-3.42l2.16.23A5.77,5.77,0,0,1,109.83,53.85Z"/><path class="cls-1" d="M122.6,53.63c-1.5,0-2.75-.19-3.64-1.45a3.88,3.88,0,0,1-.8-2.38V39.4h2.21v2.8h3.76v2.25h-3.72v4.91a1.62,1.62,0,0,0,.61,1.56,2.76,2.76,0,0,0,1.92.44h1.28v2.27Z"/></svg>